<svg xmlns="http://www.w3.org/2000/svg" viewBox="0 0 1368.38 1368.44"><defs><style>.cls-1{fill:none;}.cls-2{fill:#998543;}</style></defs><g id="Layer_2" data-name="Layer 2"><g id="katman_1" data-name="katman 1"><path class="cls-1" d="M964.35,114.76A629.53,629.53,0,0,0,769.9,55.35v.37A677.8,677.8,0,0,1,964.35,114.76Z"/><path class="cls-1" d="M716.8,50.23l.66.05Z"/><path class="cls-1" d="M769.9,55.72v-.37Q754.76,53.29,739.41,52,754.77,53.49,769.9,55.72Z"/><path d="M745.91,836.57c5.17,4.76,13.24,7.18,24,7.41V811.76H737.75C737.75,823.32,740.5,831.6,745.91,836.57Z"/><path d="M768.91,786.23q-3.61-4.92-10.75-4.93c-6.31,0-11.1,2.34-14.44,6.93A31.27,31.27,0,0,0,738.1,805h31.8V788.61A18.71,18.71,0,0,0,768.91,786.23Z"/><path d="M772.53,802.54c0-6.21-1-10.6-2.63-13.93V805h2.63Z"/><path d="M909.75,781.3c-6.28,0-11.09,2.34-14.43,6.93A31.19,31.19,0,0,0,889.7,805h34.43v-2.44q0-11.38-3.63-16.31C918.1,783,914.53,781.3,909.75,781.3Z"/><path d="M1139.38,660c37.28,0,62-25.46,62-61.24S1177,537.92,1139,537.92s-62.37,25.09-62.37,60.87S1100.67,660,1139.38,660Z"/><path d="M966.74,564.48c0-14.74-12.19-19.18-39.12-19.18H871.56v38h61.25C955.65,583.29,966.74,577.39,966.74,564.48Z"/><path d="M1319,678.85a600.64,600.64,0,0,0-38.61-212.3c-2-5.44-4.22-10.76-6.36-16.13-1.26-3.07-2.5-6.15-3.81-9.2A638.58,638.58,0,0,0,964.35,114.76a677.8,677.8,0,0,0-194.45-59q-15.14-2.2-30.49-3.76c-7.3-.64-14.59-1.3-21.95-1.68l-.66-.05q-16.18-.82-32.58-.82c-350,0-634.81,284.77-634.81,634.81S334.18,1319,684.22,1319a637.45,637.45,0,0,0,85.68-5.94c309.6-42,549.07-307.91,549.07-628.87,0-.74-.08-1.47-.08-2.21C1318.9,681,1319,679.91,1319,678.85Z"/><path d="M971.52,631.26c0-17-15.87-22.87-48-22.87h-52v45h50.15C955.3,653.38,971.52,649.69,971.52,631.26Z"/><path class="cls-2" d="M717.46,50.28c7.36.38,14.65,1,21.95,1.68C732.14,51.23,724.79,50.78,717.46,50.28Z"/><path class="cls-2" d="M769.9,5.53A690.11,690.11,0,0,0,684.22,0C306.32,0,0,306.32,0,684.22s306.32,684.22,684.22,684.22a690.11,690.11,0,0,0,85.68-5.53c337.36-42.19,598.48-329.84,598.48-678.69S1107.26,47.72,769.9,5.53ZM717.46,50.28c7.33.5,14.68.95,21.95,1.68q15.36,1.32,30.49,3.39a629.53,629.53,0,0,1,194.45,59.41C1174.23,218.45,1319,434.7,1319,684.22c0,321-239.47,586.88-549.07,628.87a637.45,637.45,0,0,1-85.68,5.94c-350,0-634.81-284.77-634.81-634.81S334.18,49.41,684.22,49.41q16.39,0,32.58.82Z"/><rect class="cls-2" x="137.89" y="776.74" width="252.04" height="14.1"/><rect class="cls-2" x="137.89" y="796.13" width="252.04" height="8.91"/><path class="cls-2" d="M147.82,670c7.38,0,24.72,12.54,52.39,12.54,41.31,0,61.6-21.39,61.6-64.92V535c0-7,1.47-8.85,8.49-10.7v-4.42H224.18v4.42c7,1.85,8.49,3.69,8.49,10.7v72.68c0,33.57-3.32,50.53-36.16,50.53-19.18,0-41.31-11.8-41.31-20.65a4.63,4.63,0,0,1,.37-2.21l-4.06-1.48-14.39,39.84,4.43,1.1C143.76,671.83,145.61,670,147.82,670Z"/><path class="cls-2" d="M999.55,632.73c0-18.07-8.85-29.88-27.28-39.09,15.5-8.13,22.12-18.47,22.12-34.69,0-21.78-19.56-39.12-58.27-39.12H833.91v4.44c7,1.84,8.5,3.69,8.5,10.72V663.72c0,7-1.47,12.32-8.5,14.16v4.44h98.52C976,682.32,999.55,660.75,999.55,632.73Zm-128-87.43h56.06c26.93,0,39.12,4.44,39.12,19.18,0,12.91-11.09,18.81-33.93,18.81H871.56Zm0,111.55V608.39h52c32.09,0,48,5.9,48,22.87,0,18.43-16.22,25.59-49.81,25.59Z"/><path class="cls-2" d="M1139,682.32c53.6,0,90.54-35.75,90.54-81.22,0-45.14-36.2-81.25-90.54-81.25s-90.57,35.75-90.57,81.25S1085.41,682.32,1139,682.32Zm0-141.16c37.31,0,61.21,24.56,61.21,59.57S1176.06,661,1139.46,661c-38,0-61.66-25.24-61.66-60.26S1101.73,541.16,1139,541.16Z"/><rect class="cls-2" x="986.1" y="776.74" width="245.16" height="14.1"/><rect class="cls-2" x="986.1" y="796.13" width="245.16" height="8.91"/><path class="cls-2" d="M910.35,775q-17.11,0-27.31,11.41c-6.81,7.62-10.25,17.4-10.25,29.37s3.66,21.47,11,28.22,16.84,10.15,28.71,10.15a54.18,54.18,0,0,0,13.5-1.87,49.9,49.9,0,0,0,14.16-6.19l-.5-3.5a101.92,101.92,0,0,1-16.56,1.47q-17.4,0-25.53-7.5c-5.44-5-8.19-13.25-8.19-24.81h51.09c.15-1.56.25-3.09.25-4.59q0-15.09-8-23.59T910.35,775Zm13.78,30H889.7a31.19,31.19,0,0,1,5.62-16.75c3.34-4.59,8.15-6.93,14.43-6.93,4.78,0,8.35,1.65,10.75,4.93s3.63,8.72,3.63,16.31Z"/><path class="cls-2" d="M758.75,775q-17.1,0-27.31,11.41c-6.81,7.62-10.25,17.4-10.25,29.37s3.66,21.47,11,28.22,16.84,10.15,28.72,10.15a54.17,54.17,0,0,0,13.49-1.87,49.66,49.66,0,0,0,14.16-6.19l-.5-3.5a101.83,101.83,0,0,1-16.56,1.47c-11.6,0-20.09-2.5-25.53-7.5s-8.19-13.25-8.19-24.81h51.09a45,45,0,0,0,.25-4.59q0-15.09-8-23.59T758.75,775Zm13.78,30H738.1a31.27,31.27,0,0,1,5.62-16.75c3.34-4.59,8.16-6.93,14.44-6.93,4.78,0,8.34,1.65,10.75,4.93s3.62,8.72,3.62,16.31Z"/><path class="cls-2" d="M487.61,851.91c3.84-.09,6.9-.15,9.22-.15,3.5,0,8.87.09,16.09.24l-.16-3.31c-3.87-.9-6.62-2-8.28-3.15a42.86,42.86,0,0,1-6.81-7.19l-26.06-32.53,17.31-16a31.92,31.92,0,0,1,8.31-6A81.69,81.69,0,0,1,509,780.14l-.34-3.31c-8.31.19-13.94.25-16.88.25-3.28,0-8.43-.06-15.37-.25l.31,3.31,9,2.53-29.18,28.18q12.88,14.86,24,30.47Q484.65,847,487.61,851.91Z"/><path class="cls-2" d="M632.06,843.44a2.77,2.77,0,0,1-1.84,2.53l-9.56,2.72L621,852q10.83-.22,18.81-.24c5.31,0,11.34.09,18,.24l-.19-3.31-8.4-2.53a2.64,2.64,0,0,1-1.85-2.75c-.12-5.59-.15-11.75-.15-18.46V789.57A35.52,35.52,0,0,1,664,785c6.18,0,10.84,1.44,14,4.34s4.75,7.6,4.75,14.22v35.25c0,2.65,0,4.34-.1,5.09a2.75,2.75,0,0,1-2,2.5l-8.09,2.34.31,3.31c6.47-.15,12.37-.24,17.69-.24s11.53.09,18.65.24l-.19-3.31-9-2.75a2.8,2.8,0,0,1-2.1-2.81c-.09-3.25-.15-8.25-.15-15V799.67c0-7.88-2.19-13.94-6.5-18.22S681,775,673.34,775q-12.15,0-26.22,9.94v-9.34l-.84-.6c-8,2-16.56,3.94-25.62,5.63l.4,2.81,10.75,2.91c.22,6,.31,12.59.31,19.62v27.53C632.12,836.69,632.09,840,632.06,843.44Z"/><path class="cls-2" d="M439,741.64q.33,6.33.34,48.25v33.18q0,11.25-.18,20.37a2.56,2.56,0,0,1-1.75,2.44l-9.56,2.81.34,3.31c7.19-.15,13.5-.24,18.78-.24s11.25.09,17.68.24l-.15-3.31-7.85-2.34a2.8,2.8,0,0,1-2.09-2.81c-.09-7.69-.15-15.5-.15-23.47V767.23q0-24.79.5-36.62l-.76-.62q-12.13,3-26.46,5.78l.41,2.66Z"/><path class="cls-2" d="M532,786.39c.22,5.78.31,14.4.31,26v17.13c0,7.81,2.13,13.9,6.34,18.18s10.63,6.5,19.1,6.5S574.57,851,583,844.79c1.82,6.15,5.41,9.22,10.88,9.22a31.61,31.61,0,0,0,6.62-1.35,82.75,82.75,0,0,0,8.59-2.81l-.4-3.16a31.57,31.57,0,0,1-5.94-.53,6.27,6.27,0,0,1-3.37-1.53,5.49,5.49,0,0,1-1.53-3.09,34.58,34.58,0,0,1-.5-5.31c-.1-4.32-.16-16.22-.16-35.78q0-15.09.5-24.78l-.75-.66c-8.06,2-16.81,3.94-26.22,5.63l.44,2.81,10.62,2.91c.22,5.12.35,11.46.35,19v34.43a38.11,38.11,0,0,1-17.19,4.41c-5.59,0-9.9-1.47-13-4.41s-4.63-7.69-4.63-14.19V799.92c0-9.91.19-18,.5-24.31l-.75-.6c-8.06,2-16.84,3.94-26.28,5.63l.41,2.81Z"/><path class="cls-2" d="M823.05,843.41a2.89,2.89,0,0,1-2.34,2.69l-9.06,2.59.4,3.31c7.22-.15,13.53-.24,18.87-.24s12,.09,20.13.24l-.25-3.31-10.25-3.06a2.78,2.78,0,0,1-2.1-2.75c-.12-3.84-.18-8.28-.18-13.37v-43.9h20.15V778H838.27v-2.65q0-22.17,5-30.44c3.34-5.56,8.12-8.31,14.31-8.31a32.48,32.48,0,0,1,4.69.25l5.24,16.06,3.41-.65c1.28-6.94,2.84-13.72,4.69-20.28a60.89,60.89,0,0,0-15.78-2q-16.64,0-26.59,12.53t-10,35.31v.34l-11.65,1,.59,3.34,11,2.72v47.65C823.21,836.57,823.14,840.07,823.05,843.41Z"/><path class="cls-2" d="M579,755.64a8.69,8.69,0,0,0,9.12-9.22,8.09,8.09,0,0,0-2.34-6.25,8.53,8.53,0,0,0-6.19-2.24,9.3,9.3,0,0,0-6.69,2.43,8.75,8.75,0,0,0-2.53,6.63,8.3,8.3,0,0,0,2.41,6.31A8.58,8.58,0,0,0,579,755.64Z"/><path class="cls-2" d="M548,755.64a9,9,0,0,0,6.59-2.53,9.12,9.12,0,0,0,2.53-6.69,8.21,8.21,0,0,0-2.37-6.25,8.67,8.67,0,0,0-6.19-2.24,9.35,9.35,0,0,0-6.69,2.43,8.9,8.9,0,0,0-2.53,6.63,8.12,8.12,0,0,0,8.66,8.65Z"/><path class="cls-2" d="M451.81,519.85v4.42c7,1.85,8.85,3.69,8.85,10.7v83c0,27.66-14,40.58-48.33,40.58C378.4,658.56,364,645.64,364,618V535c0-7,1.47-8.85,8.48-10.7v-4.42H326.38v4.42c7.38,1.85,8.48,4.06,8.48,10.7v84.11c0,44.27,21.4,63.09,77.47,63.09,55.71,0,77.1-19.19,77.1-63.09V535c0-7,1.48-8.85,8.49-10.7v-4.42Z"/><path class="cls-2" d="M769.9,673.5V610l.1-23.93c0-.48-.1-.9-.1-1.37-.35-34.22-17.93-57.29-42-63.62a53.15,53.15,0,0,0-13.5-1.93,71.52,71.52,0,0,0-21.18,3.15c-12.78,3.95-23.13,11.48-27.34,22-6.36-15.92-26.73-25.21-48.54-25.16a52.14,52.14,0,0,0-39.18,17.74l-.36.36a59.34,59.34,0,0,0-7.56,11.47c-5,9.65-8,21.41-8.29,35h0v.1c0,.79-.16,1.49-.16,2.3l0,5,.07,17.41.25,62.68c-.68,3.82-2.78,5.25-8.21,6.67v4.43h32.89v-.06H599v-4.43c-5.49-1.45-7.59-2.89-8.24-6.81V578.14A30.16,30.16,0,0,1,619.93,548a40.35,40.35,0,0,1,9.39,1.2,30.15,30.15,0,0,1,21.88,28.91v93.25c-.74,3.61-2.87,5-8.16,6.39v4.43h22.71v0H688.4v-4.43c-6.2-1.63-8.07-5.5-8.42-10.71v-89a30.44,30.44,0,0,1,16.15-26.78,39.11,39.11,0,0,1,21.49-2.86,30.52,30.52,0,0,1,23.49,29.66v92.43c-.57,4.27-2.61,5.77-8.3,7.27v4.43H745.2l-3.86,0h35.89v-4.43C773.14,676.74,771,675.6,769.9,673.5Z"/></g></g></svg>